<?xml version="1.0" standalone="no"?>
<!DOCTYPE svg PUBLIC "-//W3C//DTD SVG 20010904//EN"
 "http://www.w3.org/TR/2001/REC-SVG-20010904/DTD/svg10.dtd">
<svg version="1.0" xmlns="http://www.w3.org/2000/svg"
 width="348.000000pt" height="348.000000pt" viewBox="0 0 348.000000 348.000000"
 preserveAspectRatio="xMidYMid meet">

<g transform="translate(0.000000,348.000000) scale(0.100000,-0.100000)"
fill="#00FF9F" stroke="none">
<path d="M2323 3372 c-28 -26 -77 -63 -108 -82 -239 -148 -310 -207 -434 -360
-44 -55 -84 -99 -88 -98 -4 1 -30 34 -57 72 -58 82 -126 152 -248 254 -90 76
-198 186 -198 203 0 5 -6 9 -14 9 -8 0 -20 -28 -31 -76 -15 -63 -17 -102 -12
-227 3 -84 11 -168 16 -188 14 -44 29 -319 19 -325 -5 -3 -34 8 -65 25 -70 37
-167 63 -331 91 -68 11 -162 30 -209 41 -47 11 -88 18 -91 15 -2 -3 12 -25 32
-48 81 -96 392 -516 385 -522 -2 -1 -42 -17 -89 -36 -47 -18 -148 -63 -225
-101 -77 -38 -146 -69 -153 -69 -6 0 -12 -7 -12 -15 0 -16 69 -54 165 -91 83
-32 320 -140 344 -156 20 -14 19 -16 -27 -60 -26 -25 -74 -64 -107 -86 -67
-45 -155 -132 -140 -138 24 -9 281 -158 294 -170 10 -9 11 -17 4 -26 -18 -22
-121 -257 -115 -263 3 -3 77 -5 165 -5 134 0 158 -2 148 -14 -13 -15 -61 -152
-61 -173 0 -18 60 -17 130 2 94 25 111 22 153 -34 39 -53 101 -101 172 -132
42 -19 45 -22 45 -59 0 -37 -2 -40 -26 -40 -32 0 -319 -71 -419 -104 -60 -19
-75 -29 -105 -69 -20 -26 -55 -86 -79 -133 -48 -95 -48 -98 23 -108 64 -10
665 -36 822 -36 253 0 876 38 892 55 8 8 -52 127 -101 202 -32 49 -50 66 -82
78 -90 33 -413 115 -457 115 -26 0 -28 3 -27 43 0 41 1 42 59 70 34 16 85 53
120 88 l61 60 72 -21 c40 -11 80 -23 90 -27 15 -5 17 2 17 58 0 35 -5 84 -11
108 -5 24 -8 45 -7 46 5 5 166 -23 229 -39 33 -9 63 -16 66 -16 12 0 -11 60
-49 125 -87 149 -108 187 -108 195 0 21 147 112 232 144 26 10 50 22 53 26 3
5 -29 37 -72 72 -42 35 -105 88 -138 118 -34 30 -70 60 -80 66 -16 9 -10 15
51 50 38 22 98 50 134 63 145 53 334 178 310 206 -6 7 -36 20 -68 30 -31 9
-97 29 -147 44 -49 15 -115 35 -146 44 -31 10 -80 30 -108 46 l-53 28 23 17
c59 41 149 142 193 217 27 46 61 102 75 123 29 44 130 151 175 185 73 54 -29
52 -339 -8 -88 -18 -200 -34 -249 -38 l-89 -6 6 89 c3 49 19 170 35 269 40
245 51 457 23 455 -3 -1 -29 -22 -58 -48z m52 -84 c-10 -157 -15 -203 -30
-290 -41 -230 -57 -380 -41 -395 19 -19 200 -2 405 36 118 23 226 41 242 41
27 0 24 -4 -44 -72 -63 -64 -137 -156 -137 -172 0 -3 -20 -39 -45 -80 -49 -79
-147 -186 -195 -211 -17 -9 -30 -20 -30 -25 0 -16 122 -77 200 -100 41 -12 93
-28 115 -36 22 -7 80 -25 128 -39 87 -26 88 -27 71 -46 -38 -42 -163 -114
-274 -158 -64 -26 -142 -64 -174 -85 l-59 -39 29 -21 c16 -12 56 -46 90 -76
33 -30 91 -77 127 -105 67 -51 79 -65 53 -65 -22 0 -158 -73 -216 -115 -27
-20 -50 -43 -50 -52 0 -15 47 -106 79 -153 23 -34 73 -131 69 -135 -2 -2 -63
8 -136 22 -74 13 -140 22 -147 19 -11 -4 -11 -13 1 -52 8 -26 14 -73 14 -104
l0 -57 -62 20 c-35 10 -69 21 -76 23 -11 3 -9 11 6 36 11 18 31 60 45 93 14
33 41 86 61 119 19 32 42 80 51 107 9 27 31 63 49 81 92 92 59 295 -59 368
l-35 22 -1 191 c-1 106 -3 201 -4 213 -1 11 -5 58 -9 105 -16 192 -56 291
-160 394 -116 115 -262 175 -428 175 -203 0 -391 -77 -512 -211 -66 -74 -108
-151 -138 -254 -20 -72 -22 -102 -23 -305 0 -124 3 -277 8 -340 l7 -115 -28
-16 c-16 -9 -40 -38 -53 -65 -56 -113 -16 -270 82 -323 53 -29 126 -123 151
-195 9 -28 17 -52 18 -53 0 -2 -9 -3 -19 -3 -11 0 -47 -7 -80 -16 -34 -8 -72
-14 -85 -12 l-23 3 20 65 c11 36 28 77 38 92 11 14 19 29 19 32 0 3 -75 6
-166 6 -129 0 -165 3 -161 13 51 119 102 225 114 238 13 15 11 20 -20 43 -19
14 -37 26 -40 26 -4 0 -30 15 -59 34 -29 18 -82 48 -117 65 l-64 33 39 40 c22
22 66 58 99 81 76 52 155 125 155 144 0 15 -264 146 -354 177 -73 25 -173 78
-156 84 8 2 67 30 130 62 97 48 246 112 313 134 9 3 17 12 17 19 0 14 -51 89
-164 242 -99 134 -126 170 -180 236 -27 33 -46 62 -43 65 2 3 40 -4 83 -15 44
-11 126 -27 183 -36 152 -23 209 -38 298 -79 44 -20 86 -36 92 -36 10 0 15 30
13 85 -3 130 -7 180 -19 240 -21 107 -28 318 -13 403 6 39 13 72 15 72 2 0 28
-25 57 -56 29 -31 104 -100 167 -152 109 -92 194 -186 257 -285 16 -25 32 -46
35 -47 4 0 45 48 92 108 126 159 214 236 387 341 47 28 110 71 140 95 30 25
59 45 63 45 4 1 5 -41 2 -91z m-415 -664 c231 -66 372 -231 395 -460 4 -38 9
-80 11 -94 3 -14 8 -148 11 -298 l6 -272 -37 15 c-41 17 -145 17 -136 0 3 -5
22 -9 42 -7 118 11 208 -108 195 -258 -10 -123 -70 -249 -159 -338 -29 -29
-44 -50 -38 -56 6 -6 17 -3 30 9 29 26 25 10 -15 -54 -120 -199 -334 -283
-598 -236 -160 28 -289 121 -341 247 -15 34 -15 36 4 31 31 -8 24 4 -36 65
-68 70 -101 125 -121 199 -26 101 4 224 68 277 32 28 99 41 160 33 54 -7 53
18 -2 27 -77 12 -132 -6 -191 -62 l-38 -36 -1 39 c0 22 -2 49 -4 60 -2 11 -9
112 -15 224 -15 254 -6 429 27 536 71 231 257 384 518 426 68 11 199 3 265
-17z m492 -1101 c21 -21 44 -55 53 -75 22 -54 20 -150 -5 -198 -11 -22 -22
-40 -25 -40 -2 0 -4 26 -4 59 1 32 -2 69 -5 82 -12 42 -49 119 -58 119 -4 0
-8 20 -8 45 0 25 4 45 8 45 4 0 24 -17 44 -37z m-1307 -259 c-5 -86 -3 -134 5
-159 15 -47 7 -55 -26 -24 -82 75 -87 233 -11 317 19 20 22 21 30 6 5 -9 6
-69 2 -140z m650 -719 c66 0 139 4 163 8 l42 9 0 -47 c0 -45 -1 -46 -46 -67
-59 -26 -184 -35 -252 -18 -72 17 -97 39 -100 89 l-3 40 38 -7 c21 -4 92 -7
158 -7z m-230 -114 c-18 -52 -43 -188 -51 -283 l-7 -78 -78 0 c-47 0 -79 4
-79 10 0 14 71 192 105 263 14 32 25 63 22 70 -5 15 -71 -118 -117 -237 -18
-48 -40 -91 -48 -94 -17 -6 -362 14 -369 22 -8 8 63 145 101 197 31 41 43 49
107 69 124 37 373 99 401 100 l27 0 -14 -39z m585 19 c92 -20 310 -81 350 -98
37 -15 63 -47 118 -150 48 -88 49 -92 29 -96 -21 -5 -314 -26 -348 -26 -12 0
-33 40 -74 139 -60 147 -95 214 -102 194 -2 -6 5 -30 16 -52 12 -22 43 -93 70
-159 l49 -120 -45 -6 c-25 -3 -63 -6 -84 -6 l-39 0 0 48 c0 66 -34 269 -53
315 -16 36 -16 37 6 37 12 0 60 -9 107 -20z m-485 -35 c90 -30 278 -16 331 26
23 18 56 -118 70 -282 l6 -86 -83 -6 c-108 -9 -308 -9 -388 -1 l-61 7 0 58 c0
129 41 329 63 311 7 -6 35 -17 62 -27z"/>
<path d="M1665 2512 c-115 -11 -284 -75 -343 -130 -53 -50 -40 -122 24 -138
24 -6 55 4 154 49 161 75 308 73 564 -4 79 -25 104 -28 123 -20 28 13 46 56
38 89 -8 33 -85 78 -190 112 -134 42 -241 55 -370 42z m280 -41 c129 -32 241
-82 251 -114 3 -10 3 -30 -1 -44 -7 -31 -13 -30 -210 21 -217 57 -350 50 -513
-26 -115 -53 -176 -44 -159 23 13 49 190 135 312 152 87 12 244 6 320 -12z"/>
<path d="M1980 2197 c-135 -38 -202 -136 -203 -297 0 -101 21 -158 76 -207 45
-39 98 -54 188 -54 141 0 260 89 286 211 43 211 -149 402 -347 347z m175 -36
c53 -24 119 -100 139 -158 20 -59 20 -133 1 -181 -20 -47 -79 -108 -130 -134
-55 -29 -156 -35 -227 -14 -103 30 -144 105 -136 251 7 118 53 195 143 236 54
24 157 24 210 0z"/>
<path d="M2040 1923 c-36 -14 -39 -45 -5 -67 45 -30 88 20 49 58 -16 17 -20
18 -44 9z"/>
<path d="M1346 2175 c-115 -47 -168 -127 -168 -256 0 -180 79 -279 222 -281
187 -3 289 97 298 292 3 78 1 90 -25 140 -60 117 -194 160 -327 105z m207 -20
c99 -41 145 -154 117 -288 -24 -118 -112 -197 -229 -205 -158 -11 -241 78
-241 258 0 186 182 307 353 235z"/>
<path d="M1411 1914 c-21 -24 2 -68 32 -60 12 3 28 6 34 6 8 0 11 9 9 23 -3
12 -5 28 -5 35 -1 17 -53 14 -70 -4z"/>
<path d="M1646 1698 c-10 -35 -22 -100 -28 -145 -10 -71 -9 -87 7 -128 12 -34
26 -50 47 -59 76 -33 125 24 154 180 8 41 -13 48 -22 7 -34 -154 -91 -213
-143 -147 -17 21 -21 41 -21 96 0 59 24 184 46 242 4 10 1 16 -8 16 -9 0 -21
-23 -32 -62z"/>
<path d="M1220 1632 c0 -11 50 -57 80 -73 41 -22 167 -16 218 10 23 12 42 26
42 32 0 6 -3 9 -7 7 -78 -40 -157 -52 -224 -35 -21 5 -50 22 -66 38 -28 29
-43 36 -43 21z"/>
<path d="M2216 1616 c-47 -39 -188 -58 -264 -37 -24 7 -32 7 -32 -3 0 -28 149
-35 239 -11 49 13 101 47 101 67 0 13 -13 9 -44 -16z"/>
<path d="M2025 1401 c-158 -77 -192 -86 -330 -85 -99 1 -131 5 -180 23 -129
49 -181 45 -238 -18 -63 -70 -69 -175 -15 -270 53 -94 193 -207 309 -252 51
-19 57 -24 62 -56 8 -48 23 -63 63 -63 27 0 34 -4 34 -19 0 -10 8 -29 18 -41
14 -18 22 -20 43 -11 16 6 31 22 37 41 8 21 17 31 29 30 53 -6 82 13 91 58 6
30 13 35 77 57 89 31 167 86 226 159 114 140 156 290 110 391 -32 70 -93 105
-183 105 -44 0 -72 -9 -153 -49z m115 0 c0 -31 -26 -46 -56 -32 -27 12 -24 28
10 41 34 14 46 11 46 -9z m-112 -58 c-2 -23 -8 -28 -32 -28 -39 0 -44 20 -9
39 39 21 45 20 41 -11z m-581 -5 c39 -14 42 -25 11 -37 -25 -10 -58 11 -58 36
0 16 5 16 47 1z m142 -44 c11 -3 11 -7 1 -19 -25 -30 -80 -12 -80 26 0 16 4
17 33 8 17 -6 38 -13 46 -15z m341 18 c0 -4 -7 -18 -16 -30 -16 -23 -42 -23
-72 1 -10 8 -6 13 20 23 40 14 68 17 68 6z m-235 -33 c10 -16 -24 -49 -43 -42
-20 8 -32 23 -32 41 0 15 66 17 75 1z m100 -19 c-19 -36 -29 -37 -49 -8 -23
33 -20 38 24 38 l41 0 -16 -30z m-205 -415 c0 -28 -3 -30 -32 -14 -21 11 -21
12 -3 25 27 20 35 17 35 -11z m497 10 c3 -9 -57 -39 -63 -32 -1 1 2 12 7 25 6
16 15 22 31 20 12 -2 23 -8 25 -13z m-406 -22 c0 -5 2 -16 4 -26 3 -16 -1 -17
-28 -11 -42 9 -46 13 -23 30 21 15 46 19 47 7z m314 -4 c9 -14 2 -19 -39 -29
-40 -9 -44 -5 -19 22 18 20 48 24 58 7z m-205 -34 c0 -20 -4 -24 -22 -21 -13
3 -32 5 -43 5 -18 1 -18 3 5 21 36 28 60 26 60 -5z m98 2 c3 -13 -3 -17 -27
-17 -33 0 -39 8 -19 28 17 17 42 11 46 -11z m-103 -42 c44 0 95 4 114 8 32 7
33 6 26 -21 -9 -35 -8 -35 -58 -41 -35 -5 -44 -11 -57 -38 -19 -41 -47 -43
-56 -5 -10 40 -23 53 -49 46 -16 -4 -27 1 -39 17 -25 37 -21 53 12 43 15 -5
63 -9 107 -9z"/>
</g>
</svg>
